<svg width="49" height="49" viewBox="0 0 49 49" fill="none" xmlns="http://www.w3.org/2000/svg">
<path fill-rule="evenodd" clip-rule="evenodd" d="M24.5394 6.125C19.9283 6.125 15.7276 7.64808 13.2418 8.89248C13.0173 9.00477 12.8076 9.11434 12.613 9.22119C12.2271 9.43148 11.8984 9.62748 11.6371 9.8L14.4648 13.963L15.796 14.4928C20.9981 17.1173 27.9745 17.1173 33.1777 14.4928L34.6885 13.7088L37.3621 9.8C36.8077 9.43976 36.2319 9.11351 35.6379 8.82306C33.1644 7.59194 29.0637 6.125 24.5404 6.125M17.9642 10.8372C16.9631 10.6488 15.9742 10.4006 15.0028 10.094C17.3313 9.0599 20.8011 7.9625 24.5404 7.9625C27.1303 7.9625 29.5793 8.48925 31.6046 9.15688C29.2312 9.49069 26.6985 10.0573 24.2852 10.7545C22.3865 11.3037 20.1672 11.2445 17.9642 10.8372ZM34.2567 16.0067L34.0056 16.1333C28.2828 19.0202 20.6919 19.0202 14.9691 16.1333L14.7312 16.0128C6.13276 25.4463 -0.431202 42.8719 24.5394 42.8719C49.51 42.8719 42.7868 25.1227 34.2567 16.0067ZM23.4788 24.5C22.9373 24.5 22.418 24.7151 22.0351 25.098C21.6522 25.4809 21.4371 26.0002 21.4371 26.5417C21.4371 27.0832 21.6522 27.6025 22.0351 27.9853C22.418 28.3682 22.9373 28.5833 23.4788 28.5833V24.5ZM25.5204 22.4583V21.4375H23.4788V22.4583C22.3958 22.4583 21.3572 22.8885 20.5914 23.6543C19.8256 24.4201 19.3954 25.4587 19.3954 26.5417C19.3954 27.6246 19.8256 28.6632 20.5914 29.429C21.3572 30.1948 22.3958 30.625 23.4788 30.625V34.7083C22.5906 34.7083 21.8342 34.1418 21.5524 33.3476C21.5106 33.2176 21.4432 33.0974 21.3541 32.994C21.265 32.8906 21.1561 32.806 21.0338 32.7455C20.9115 32.6849 20.7783 32.6494 20.642 32.6412C20.5058 32.633 20.3693 32.6522 20.2406 32.6977C20.1119 32.7431 19.9936 32.814 19.8928 32.9059C19.7919 32.9979 19.7105 33.1092 19.6534 33.2332C19.5963 33.3571 19.5647 33.4913 19.5603 33.6277C19.556 33.7642 19.5791 33.9001 19.6282 34.0274C19.9096 34.8237 20.4311 35.5132 21.1207 36.0008C21.8103 36.4884 22.6342 36.7501 23.4788 36.75V37.7708H25.5204V36.75C26.6034 36.75 27.642 36.3198 28.4078 35.554C29.1735 34.7882 29.6038 33.7496 29.6038 32.6667C29.6038 31.5837 29.1735 30.5451 28.4078 29.7793C27.642 29.0135 26.6034 28.5833 25.5204 28.5833V24.5C26.4086 24.5 27.165 25.0666 27.4467 25.8608C27.4885 25.9907 27.556 26.1109 27.6451 26.2144C27.7341 26.3178 27.8431 26.4023 27.9654 26.4629C28.0877 26.5235 28.2209 26.5589 28.3571 26.5671C28.4934 26.5753 28.6299 26.5561 28.7586 26.5107C28.8873 26.4652 29.0056 26.3944 29.1064 26.3024C29.2073 26.2104 29.2886 26.0991 29.3457 25.9752C29.4028 25.8512 29.4345 25.717 29.4388 25.5806C29.4432 25.4442 29.4201 25.3083 29.371 25.1809C29.0896 24.3846 28.5681 23.6951 27.8785 23.2076C27.1889 22.72 26.365 22.4582 25.5204 22.4583ZM25.5204 30.625V34.7083C26.0619 34.7083 26.5812 34.4932 26.9641 34.1103C27.347 33.7275 27.5621 33.2082 27.5621 32.6667C27.5621 32.1252 27.347 31.6059 26.9641 31.223C26.5812 30.8401 26.0619 30.625 25.5204 30.625Z" fill="white"/>
</svg>
